# xmcd
#
# Track frame offsets:
#	180
#	15041
#	35449
#	54186
#	71061
#	95347
#	118896
#	133811
#	150082
#	175201
#	195212
#	213663
#	227608
#	240804
#	262475
#
# Disc length: 3734 seconds
#
# Revision: 2
# Processed by: cddbd v1.5.2PL0 Copyright (c) Steve Scherf et al.
# Submitted via: audiograbber 1.83.01
#
DISCID=bc0e940f
DTITLE=Various Artist - 11-5
DYEAR=1900
DGENRE=Karaoke
TTITLE0=Jim Croce - You Don't Mess Around With Jim
TTITLE1=Dexy's Midnight Runners - Come On Eileen
TTITLE2=Tommy Tutone - 8675309 Jenny
TTITLE3=Terence Trent D'Arby - Wishing Well
TTITLE4=Steve Miller Band - Abracadabra
TTITLE5=Bob Seger - Turn The Page
TTITLE6=John Cougar Mellencamp - Rock in the U. S. A
TTITLE7=Timbuk 2 - Futures so Bright
TTITLE8=Gap Band - You Dropped the Bomb on Me
TTITLE9=Bad Company - Can't Get Enough
TTITLE10=Grant Eddy - Electric Avenue
TTITLE11=Jump 'N Saddle Band - Curly Shuffle
TTITLE12=John Cafferty - On the Dark Side
TTITLE13=Was Not Was - Walk the Dinosaur
TTITLE14=Thomas Dolby - She Blinded Me With Science
EXTD=
EXTT0=
EXTT1=
EXTT2=
EXTT3=
EXTT4=
EXTT5=
EXTT6=
EXTT7=
EXTT8=
EXTT9=
EXTT10=
EXTT11=
EXTT12=
EXTT13=
EXTT14=
PLAYORDER=
